<?xml version="1.0" encoding="UTF-8"?>
<!--
  Social preview for @gkzlabs/image-compression
  Dimensions: 1280×640 (2:1, GitHub/Twitter card spec)
  Render to PNG: rsvg-convert -w 1280 -h 640 -f png social-preview.svg -o social-preview.png
  Hand-crafted SVG — all framework logos are inline (no external refs).
  Brand logos are from simpleicons.org (CC0, no attribution required).
-->
<svg xmlns="http://www.w3.org/2000/svg" viewBox="0 0 1280 640" width="1280" height="640" role="img" aria-label="@gkzlabs/image-compression — framework-agnostic image compression for the browser. Works with React, Vue, Svelte, Angular, vanilla JavaScript. Live demo at gkzlabs.github.io/image-compression.">
  <defs>
    <linearGradient id="bg" x1="0" y1="0" x2="1" y2="1">
      <stop offset="0" stop-color="#0a0f1f"/>
      <stop offset="0.5" stop-color="#15204a"/>
      <stop offset="1" stop-color="#0a0f1f"/>
    </linearGradient>
    <radialGradient id="glow" cx="0.5" cy="0.3" r="0.7">
      <stop offset="0" stop-color="#5d7dff" stop-opacity="0.22"/>
      <stop offset="1" stop-color="#5d7dff" stop-opacity="0"/>
    </radialGradient>
    <linearGradient id="accent" x1="0" y1="0" x2="1" y2="0">
      <stop offset="0" stop-color="#7aa2ff"/>
      <stop offset="1" stop-color="#9c7cff"/>
    </linearGradient>
    <linearGradient id="chip" x1="0" y1="0" x2="0" y2="1">
      <stop offset="0" stop-color="#1a2548" stop-opacity="0.95"/>
      <stop offset="1" stop-color="#0e1530" stop-opacity="0.95"/>
    </linearGradient>
    <linearGradient id="chipStroke" x1="0" y1="0" x2="0" y2="1">
      <stop offset="0" stop-color="#4a5fa0" stop-opacity="0.6"/>
      <stop offset="1" stop-color="#2a3766" stop-opacity="0.6"/>
    </linearGradient>
  </defs>

  <!-- BACKGROUND -->
  <rect width="1280" height="640" fill="url(#bg)"/>
  <rect width="1280" height="640" fill="url(#glow)"/>

  <!-- TOP-LEFT PACKAGE BADGE -->
  <g transform="translate(64,56)">
    <rect x="0" y="0" width="244" height="40" rx="20" fill="url(#chip)" stroke="url(#chipStroke)" stroke-width="1.5"/>
    <circle cx="22" cy="20" r="5" fill="#5dd39e"/>
    <text x="40" y="27" font-family="ui-sans-serif, -apple-system, 'Segoe UI', system-ui, sans-serif" font-size="16" fill="#cbd5ff" font-weight="600" letter-spacing="-0.2">@gkzlabs/image-compression</text>
  </g>

  <!-- HERO TITLE -->
  <text x="640" y="208" text-anchor="middle"
        font-family="ui-sans-serif, -apple-system, 'Segoe UI', system-ui, sans-serif"
        font-size="104" font-weight="800" fill="#f1f5ff" letter-spacing="-3">Image Compression</text>
  <rect x="540" y="232" width="200" height="4" rx="2" fill="url(#accent)"/>

  <!-- SUBTITLE -->
  <text x="640" y="288" text-anchor="middle"
        font-family="ui-sans-serif, -apple-system, 'Segoe UI', system-ui, sans-serif"
        font-size="34" font-weight="500" fill="#b8c8f0" letter-spacing="-0.5">Framework-agnostic. Pure browser. WebCodecs first.</text>

  <!-- 4-PATH CASCADE -->
  <g transform="translate(146,360)">
    <g transform="translate(0,0)">
      <rect width="220" height="78" rx="14" fill="url(#chip)" stroke="url(#chipStroke)" stroke-width="1.5"/>
      <circle cx="22" cy="22" r="4" fill="#5dd39e"/>
      <text x="22" y="50" font-family="ui-sans-serif, -apple-system, system-ui, sans-serif" font-size="12" fill="#8aa0d8" font-weight="500" letter-spacing="1.5">PATH 1</text>
      <text x="22" y="68" font-family="ui-monospace, SFMono-Regular, Menlo, monospace" font-size="17" fill="#f1f5ff" font-weight="700">webcodecs-worker</text>
    </g>
    <g transform="translate(228,39)">
      <path d="M 0 0 L 30 0" stroke="url(#accent)" stroke-width="3" stroke-linecap="round"/>
      <polygon points="30,-7 42,0 30,7" fill="#7aa2ff"/>
    </g>
    <g transform="translate(274,0)">
      <rect width="220" height="78" rx="14" fill="url(#chip)" stroke="url(#chipStroke)" stroke-width="1.5"/>
      <circle cx="22" cy="22" r="4" fill="#7aa2ff"/>
      <text x="22" y="50" font-family="ui-sans-serif, -apple-system, system-ui, sans-serif" font-size="12" fill="#8aa0d8" font-weight="500" letter-spacing="1.5">PATH 2</text>
      <text x="22" y="68" font-family="ui-monospace, SFMono-Regular, Menlo, monospace" font-size="17" fill="#f1f5ff" font-weight="700">offscreen-worker</text>
    </g>
    <g transform="translate(502,39)">
      <path d="M 0 0 L 30 0" stroke="url(#accent)" stroke-width="3" stroke-linecap="round"/>
      <polygon points="30,-7 42,0 30,7" fill="#7aa2ff"/>
    </g>
    <g transform="translate(548,0)">
      <rect width="220" height="78" rx="14" fill="url(#chip)" stroke="url(#chipStroke)" stroke-width="1.5"/>
      <circle cx="22" cy="22" r="4" fill="#9c7cff"/>
      <text x="22" y="50" font-family="ui-sans-serif, -apple-system, system-ui, sans-serif" font-size="12" fill="#8aa0d8" font-weight="500" letter-spacing="1.5">PATH 3</text>
      <text x="22" y="68" font-family="ui-monospace, SFMono-Regular, Menlo, monospace" font-size="17" fill="#f1f5ff" font-weight="700">canvas-main</text>
    </g>
    <g transform="translate(776,39)">
      <path d="M 0 0 L 30 0" stroke="url(#accent)" stroke-width="3" stroke-linecap="round"/>
      <polygon points="30,-7 42,0 30,7" fill="#7aa2ff"/>
    </g>
    <g transform="translate(822,0)">
      <rect width="220" height="78" rx="14" fill="url(#chip)" stroke="url(#chipStroke)" stroke-width="1.5"/>
      <circle cx="22" cy="22" r="4" fill="#c9a26b"/>
      <text x="22" y="50" font-family="ui-sans-serif, -apple-system, system-ui, sans-serif" font-size="12" fill="#8aa0d8" font-weight="500" letter-spacing="1.5">PATH 4</text>
      <text x="22" y="68" font-family="ui-monospace, SFMono-Regular, Menlo, monospace" font-size="17" fill="#f1f5ff" font-weight="700">server-fallback</text>
    </g>
  </g>

  <!-- WORKS WITH — flat layout, no chip boxes (logos + text float on bg) -->
  <g transform="translate(640,498)" text-anchor="middle">
    <text x="0" y="0" font-family="ui-sans-serif, -apple-system, system-ui, sans-serif" font-size="14" fill="#6e83b8" font-weight="600" letter-spacing="3">WORKS WITH</text>
    <!-- 5 entries: 20x20 logo + separator + text. Each ~140w, gap 20. Total = 5*140 + 4*20 = 780, start = -390 -->
    <g transform="translate(-390,28)">

      <!-- React (#61DAFB) -->
      <g transform="translate(0,0)">
        <g transform="translate(0,2) scale(0.833)" fill="#61DAFB">
          <path d="M14.23 12.004a2.236 2.236 0 0 1-2.235 2.236 2.236 2.236 0 0 1-2.236-2.236 2.236 2.236 0 0 1 2.235-2.236 2.236 2.236 0 0 1 2.236 2.236zm2.648-10.69c-1.346 0-3.107.96-4.888 2.622-1.78-1.653-3.542-2.602-4.887-2.602-.41 0-.783.093-1.106.278-1.375.793-1.683 3.264-.973 6.365C1.98 8.917 0 10.42 0 12.004c0 1.59 1.99 3.097 5.043 4.03-.704 3.113-.39 5.588.988 6.38.32.187.69.275 1.102.275 1.345 0 3.107-.96 4.888-2.624 1.78 1.654 3.542 2.603 4.887 2.603.41 0 .783-.09 1.106-.275 1.374-.792 1.683-3.263.973-6.365C22.02 15.096 24 13.59 24 12.004c0-1.59-1.99-3.097-5.043-4.032.704-3.11.39-5.587-.988-6.38-.318-.184-.688-.277-1.092-.278zm-.005 1.09v.006c.225 0 .406.044.558.127.666.382.955 1.835.73 3.704-.054.46-.142.945-.25 1.44-.96-.236-2.006-.417-3.107-.534-.66-.905-1.345-1.727-2.035-2.447 1.592-1.48 3.087-2.292 4.105-2.295zm-9.77.02c1.012 0 2.514.808 4.11 2.28-.686.72-1.37 1.537-2.02 2.442-1.107.117-2.154.298-3.113.538-.112-.49-.195-.964-.254-1.42-.23-1.868.054-3.32.714-3.707.19-.09.4-.127.563-.132zm4.882 3.05c.455.468.91.992 1.36 1.564-.44-.02-.89-.034-1.345-.034-.46 0-.915.01-1.36.034.44-.572.895-1.096 1.345-1.565zM12 8.1c.74 0 1.477.034 2.202.093.406.582.802 1.203 1.183 1.86.372.64.71 1.29 1.018 1.946-.308.655-.646 1.31-1.013 1.95-.38.66-.773 1.288-1.18 1.87-.728.063-1.466.098-2.21.098-.74 0-1.477-.035-2.202-.093-.406-.582-.802-1.204-1.183-1.86-.372-.64-.71-1.29-1.018-1.946.303-.657.646-1.313 1.013-1.954.38-.66.773-1.286 1.18-1.868.728-.064 1.466-.098 2.21-.098zm-3.635.254c-.24.377-.48.763-.704 1.16-.225.39-.435.782-.635 1.174-.265-.656-.49-1.31-.676-1.947.64-.15 1.315-.283 2.015-.386zm7.26 0c.695.103 1.365.23 2.006.387-.18.632-.405 1.282-.66 1.933-.2-.39-.41-.783-.64-1.174-.225-.392-.465-.774-.705-1.146zm3.063.675c.484.15.944.317 1.375.498 1.732.74 2.852 1.708 2.852 2.476-.005.768-1.125 1.74-2.857 2.475-.42.18-.88.342-1.355.493-.28-.958-.646-1.956-1.1-2.98.45-1.017.81-2.01 1.085-2.964zm-13.395.004c.278.96.645 1.957 1.1 2.98-.45 1.017-.812 2.01-1.086 2.964-.484-.15-.944-.318-1.37-.5-1.732-.737-2.852-1.706-2.852-2.474 0-.768 1.12-1.742 2.852-2.476.42-.18.88-.342 1.356-.494zm11.678 4.28c.265.657.49 1.312.676 1.948-.64.157-1.316.29-2.016.39.24-.375.48-.762.705-1.158.225-.39.435-.788.636-1.18zm-9.945.02c.2.392.41.783.64 1.175.23.39.465.772.705 1.143-.695-.102-1.365-.23-2.006-.386.18-.63.406-1.282.66-1.933zM17.92 16.32c.112.493.2.968.254 1.423.23 1.868-.054 3.32-.714 3.708-.147.09-.338.128-.563.128-1.012 0-2.514-.807-4.11-2.28.686-.72 1.37-1.536 2.02-2.44 1.107-.118 2.154-.3 3.113-.54zm-11.83.01c.96.234 2.006.415 3.107.532.66.905 1.345 1.727 2.035 2.446-1.595 1.483-3.092 2.295-4.11 2.295-.22-.005-.406-.05-.553-.132-.666-.38-.955-1.834-.73-3.703.054-.46.142-.944.25-1.438zm4.56.64c.44.02.89.034 1.345.034.46 0 .915-.01 1.36-.034-.44.572-.895 1.095-1.345 1.565-.455-.47-.91-.993-1.36-1.565z"/>
        </g>
        <line x1="30" y1="3" x2="30" y2="17" stroke="#4a5fa0" stroke-width="1" stroke-opacity="0.6"/>
        <text x="42" y="18" font-family="ui-sans-serif, -apple-system, system-ui, sans-serif" font-size="18" font-weight="600" fill="#dde4f5">React</text>
      </g>

      <!-- Vue (#41B883) -->
      <g transform="translate(160,0)">
        <g transform="translate(0,2) scale(0.833)" fill="#41B883">
          <path d="M24,1.61H14.06L12,5.16,9.94,1.61H0L12,22.39ZM12,14.08,5.16,2.23H9.59L12,6.41l2.41-4.18h4.43Z"/>
        </g>
        <line x1="30" y1="3" x2="30" y2="17" stroke="#4a5fa0" stroke-width="1" stroke-opacity="0.6"/>
        <text x="42" y="18" font-family="ui-sans-serif, -apple-system, system-ui, sans-serif" font-size="18" font-weight="600" fill="#dde4f5">Vue</text>
      </g>

      <!-- Svelte (#FF3E00) -->
      <g transform="translate(320,0)">
        <g transform="translate(0,2) scale(0.833)" fill="#FF3E00">
          <path d="M10.354 21.125a4.44 4.44 0 0 1-4.765-1.767 4.109 4.109 0 0 1-.703-3.107 3.898 3.898 0 0 1 .134-.522l.105-.321.287.21a7.21 7.21 0 0 0 2.186 1.092l.208.063-.02.208a1.253 1.253 0 0 0 .226.83 1.337 1.337 0 0 0 1.435.533 1.231 1.231 0 0 0 .343-.15l5.59-3.562a1.164 1.164 0 0 0 .524-.778 1.242 1.242 0 0 0-.211-.937 1.338 1.338 0 0 0-1.435-.533 1.23 1.23 0 0 0-.343.15l-2.133 1.36a4.078 4.078 0 0 1-1.135.499 4.44 4.44 0 0 1-4.765-1.766 4.108 4.108 0 0 1-.702-3.108 3.855 3.855 0 0 1 1.742-2.582l5.589-3.563a4.072 4.072 0 0 1 1.135-.499 4.44 4.44 0 0 1 4.765 1.767 4.109 4.109 0 0 1 .703 3.107 3.943 3.943 0 0 1-.134.522l-.105.321-.286-.21a7.204 7.204 0 0 0-2.187-1.093l-.208-.063.02-.207a1.255 1.255 0 0 0-.226-.831 1.337 1.337 0 0 0-1.435-.532 1.231 1.231 0 0 0-.343.15L8.62 9.368a1.162 1.162 0 0 0-.524.778 1.24 1.24 0 0 0 .211.937 1.338 8.338 0 0 0 1.435.533 1.235 1.235 0 0 0 .344-.151l2.132-1.36a4.067 4.067 0 0 1 1.135-.498 4.44 4.44 0 0 1 4.765 1.766 4.108 4.108 0 0 1 .702 3.108 3.857 3.857 0 0 1-1.742 2.583l-5.589 3.562a4.072 4.072 0 0 1-1.135.499m10.358-17.95C18.484-.015 14.082-.96 10.9 1.068L5.31 4.63a6.412 6.412 0 0 0-2.896 4.295 6.753 6.753 0 0 0 .666 4.336 6.43 6.43 0 0 0-.96 2.396 6.833 6.833 0 0 0 1.168 5.167c2.229 3.19 6.63 4.135 9.812 2.108l5.59-3.562a6.41 6.41 0 0 0 2.896-4.295 6.756 6.756 0 0 0-.665-4.336 6.429 6.429 0 0 0 .958-2.396 6.831 6.831 0 0 0-1.167-5.168Z"/>
        </g>
        <line x1="30" y1="3" x2="30" y2="17" stroke="#4a5fa0" stroke-width="1" stroke-opacity="0.6"/>
        <text x="42" y="18" font-family="ui-sans-serif, -apple-system, system-ui, sans-serif" font-size="18" font-weight="600" fill="#dde4f5">Svelte</text>
      </g>

      <!-- Angular (#DD0031) -->
      <g transform="translate(480,0)">
        <g transform="translate(0,2) scale(0.833)" fill="#DD0031">
          <path d="M16.712 17.711H7.288l-1.204 2.916L12 24l5.916-3.373-1.204-2.916ZM14.692 0l7.832 16.855.814-12.856L14.692 0ZM9.308 0 .662 3.999l.814 12.856L9.308 0Zm-.405 13.93h6.198L12 6.396 8.903 13.93Z"/>
        </g>
        <line x1="30" y1="3" x2="30" y2="17" stroke="#4a5fa0" stroke-width="1" stroke-opacity="0.6"/>
        <text x="42" y="18" font-family="ui-sans-serif, -apple-system, system-ui, sans-serif" font-size="18" font-weight="600" fill="#dde4f5">Angular</text>
      </g>

      <!-- Vanilla JS — JavaScript official logo: yellow square with dark "JS" -->
      <g transform="translate(640,0)">
        <g transform="translate(0,2) scale(0.833)">
          <rect width="24" height="24" rx="4" fill="#F7DF1E"/>
          <path fill="#000000" d="M0 0h24v24H0V0zm22.034 18.276c-.175-1.095-.888-2.015-3.003-2.873-.736-.345-1.554-.585-1.797-1.14-.091-.33-.105-.51-.046-.705.15-.646.915-.84 1.515-.66.39.12.75.42.976.9 1.034-.676 1.034-.676 1.755-1.125-.27-.42-.404-.601-.586-.78-.63-.705-1.469-1.065-2.834-1.034l-.705.089c-.676.165-1.32.525-1.71 1.005-1.14 1.291-.811 3.541.569 4.471 1.365 1.02 3.361 1.244 3.616 2.205.24 1.17-.87 1.545-1.966 1.41-.811-.18-1.26-.586-1.755-1.336l-1.83 1.051c.21.48.45.689.81 1.109 1.74 1.756 6.09 1.666 6.871-1.004.029-.09.24-.705.074-1.65l.046.067zm-8.983-7.245h-2.248c0 1.938-.009 3.864-.009 5.805 0 1.232.063 2.363-.138 2.711-.33.689-1.18.601-1.566.48-.396-.196-.597-.466-.83-.855-.063-.105-.11-.196-.127-.196l-1.825 1.125c.305.63.75 1.172 1.324 1.517.855.51 2.004.675 3.207.405.783-.226 1.458-.691 1.811-1.411.51-.93.402-2.07.397-3.346.012-2.054 0-4.109 0-6.179l.004-.056z"/>
        </g>
        <line x1="30" y1="3" x2="30" y2="17" stroke="#4a5fa0" stroke-width="1" stroke-opacity="0.6"/>
        <text x="42" y="18" font-family="ui-sans-serif, -apple-system, system-ui, sans-serif" font-size="18" font-weight="600" fill="#dde4f5">Vanilla</text>
      </g>

    </g>
  </g>

  <!-- BOTTOM BAR — text only, no icons -->
  <g transform="translate(64,608)">
    <text x="0" y="0" font-family="ui-monospace, SFMono-Regular, Menlo, monospace" font-size="16" fill="#7aa2ff" font-weight="500">Live demo · gkzlabs.github.io/image-compression</text>
  </g>
  <g transform="translate(1216,608)" text-anchor="end">
    <text x="0" y="0" font-family="ui-monospace, SFMono-Regular, Menlo, monospace" font-size="16" fill="#6e83b8" font-weight="500">MIT License</text>
  </g>
</svg>
